<?xml version="1.0" encoding="UTF-8"?>
<svg xmlns="http://www.w3.org/2000/svg" xmlns:xlink="http://www.w3.org/1999/xlink" width="1333pt" height="1333pt" viewBox="0 0 1333 1333" version="1.1">
<defs>
<linearGradient id="linear0" gradientUnits="userSpaceOnUse" x1="0.29036" y1="6.22699" x2="0.58126" y2="-1.61518" gradientTransform="matrix(172.855469,0,0,-61.6875,316.289062,624.558594)">
<stop offset="0" style="stop-color:rgb(97.647059%,40.392157%,1.176471%);stop-opacity:1;"/>
<stop offset="1" style="stop-color:rgb(83.529412%,14.117647%,9.019608%);stop-opacity:1;"/>
</linearGradient>
<linearGradient id="linear1" gradientUnits="userSpaceOnUse" x1="0.40732" y1="0.9813" x2="0.50131" y2="0.3928" gradientTransform="matrix(534.988281,0,0,-823.914063,641.753906,997.050781)">
<stop offset="0" style="stop-color:rgb(97.647059%,40.392157%,1.176471%);stop-opacity:1;"/>
<stop offset="1" style="stop-color:rgb(83.529412%,14.117647%,9.019608%);stop-opacity:1;"/>
</linearGradient>
</defs>
<g id="surface1">
<path style=" stroke:none;fill-rule:nonzero;fill:url(#linear0);" d="M 316.289062 590.539062 L 355.859375 612.144531 C 364.375 615.796875 447.757812 649.484375 488.640625 588.488281 C 488.808594 588.242188 488.976562 587.96875 489.144531 587.714844 C 457.578125 593.667969 423.945312 587.988281 394.8125 571.316406 L 380.046875 562.871094 Z M 316.289062 590.539062 "/>
<path style=" stroke:none;fill-rule:nonzero;fill:rgb(15.294118%,32.54902%,44.705882%);fill-opacity:1;" d="M 632.199219 962.984375 C 622.515625 950.242188 613.851562 938.496094 605.859375 927.648438 C 536.304688 833.3125 521.832031 813.683594 306.398438 799.703125 C 215.546875 793.808594 112.523438 742.503906 49.847656 706.152344 L 30.777344 714.425781 C 8.746094 723.984375 7.222656 752.945312 28.148438 764.507812 L 730.242188 1152.429688 C 748.550781 1162.546875 771.164062 1162.800781 789.722656 1153.105469 L 836.238281 1128.804688 C 744.671875 1067.519531 666.027344 1007.449219 632.199219 962.984375 "/>
<path style=" stroke:none;fill-rule:nonzero;fill:rgb(4.313725%,57.254902%,70.980392%);fill-opacity:1;" d="M 377.300781 674.617188 C 386.75 669.773438 395.957031 664.699219 405.046875 659.585938 C 379.179688 658.042969 355.355469 651.101562 339.109375 643.789062 L 337.785156 643.132812 L 274.59375 608.628906 L 204.175781 639.1875 C 261.867188 671.78125 331.640625 698.019531 377.300781 674.617188 "/>
<path style=" stroke:none;fill-rule:nonzero;fill:rgb(15.294118%,32.54902%,44.705882%);fill-opacity:1;" d="M 492.054688 550.542969 C 501.425781 547.597656 510.035156 543.25 517.925781 537.636719 C 521.675781 530.472656 525.394531 523.246094 529.078125 516.074219 C 533.027344 508.382812 536.992188 500.671875 541 493.03125 L 421.621094 544.832031 C 444.175781 555.492188 469.402344 557.664062 492.054688 550.542969 "/>
<path style=" stroke:none;fill-rule:nonzero;fill:rgb(1.960784%,40%,52.941176%);fill-opacity:1;" d="M 709.691406 793.171875 C 684.285156 754.1875 660.296875 717.367188 637.273438 688.019531 C 572.242188 605.15625 523.8125 632.949219 443.585938 678.964844 C 428.128906 687.832031 412.144531 697.003906 395.230469 705.671875 C 325.144531 741.578125 228.191406 696.90625 163.507812 656.832031 L 91.339844 688.148438 C 151.179688 720.914062 235.945312 759.699219 308.976562 764.4375 C 533.816406 779.023438 560.386719 804.003906 636.667969 907.484375 C 644.570312 918.195312 653.121094 929.804688 662.699219 942.386719 C 695.851562 985.964844 777.871094 1047.269531 872.683594 1109.765625 L 942.738281 1073.164062 C 841.144531 994.796875 769.421875 884.835938 709.691406 793.171875 "/>
<path style=" stroke:none;fill-rule:nonzero;fill:rgb(15.294118%,32.54902%,44.705882%);fill-opacity:1;" d="M 1042.328125 724.277344 C 1076.21875 789.230469 1114.597656 847.34375 1158.933594 887.519531 C 1176.125 903.101562 1193.761719 918.164062 1211.601562 932.703125 L 1312.285156 880.105469 C 1322.777344 874.625 1322.542969 860.34375 1311.886719 855.167969 Z M 1042.328125 724.277344 "/>
<path style=" stroke:none;fill-rule:nonzero;fill:rgb(4.313725%,57.254902%,70.980392%);fill-opacity:1;" d="M 814.722656 651.117188 C 806.132812 634.613281 797.363281 617.765625 788.546875 601.050781 C 778.878906 582.71875 769.152344 564.570312 759.542969 547.199219 C 722.0625 479.417969 686.378906 423.71875 662.894531 417.71875 C 647.050781 413.671875 632.042969 423.039062 617.605469 439.835938 C 610.703125 447.867188 603.925781 457.605469 597.253906 468.394531 C 591.261719 478.085938 585.347656 488.617188 579.492188 499.539062 C 573.898438 509.972656 568.355469 520.753906 562.847656 531.472656 C 557.957031 541 553 550.640625 547.957031 560.132812 C 539.835938 575.429688 531.476562 590.277344 522.777344 603.648438 C 569.582031 592.796875 617.636719 603.558594 667.433594 667 C 691.425781 697.574219 715.820312 735.023438 741.664062 774.675781 C 802.125 867.460938 875.320312 979.519531 978.363281 1054.550781 L 1053.378906 1015.363281 C 966.078125 941.835938 885.890625 787.851562 814.722656 651.117188 "/>
<path style=" stroke:none;fill-rule:nonzero;fill:url(#linear1);" d="M 641.753906 382.371094 C 651.398438 380.542969 661.667969 380.78125 672.71875 383.597656 C 714.789062 394.34375 755.632812 459.996094 816.601562 574.902344 C 825.488281 591.652344 834.808594 609.449219 844.617188 628.273438 C 845.882812 630.699219 847.128906 633.09375 848.410156 635.554688 C 921.011719 775.046875 1003.234375 932.941406 1088.4375 997.050781 L 1176.742188 950.914062 C 1161.925781 938.613281 1147.269531 926 1132.917969 912.992188 C 1075.394531 860.863281 1028.101562 782.429688 987.699219 697.753906 C 979.667969 680.917969 971.90625 663.84375 964.390625 646.664062 C 939.894531 590.679688 918.023438 533.742188 897.886719 481.304688 C 853.246094 365.027344 800.65625 173.332031 761.789062 173.136719 C 761.746094 173.136719 761.703125 173.136719 761.660156 173.136719 C 714.050781 173.128906 674.898438 306.761719 641.753906 382.371094 "/>
</g>
</svg>
