<svg width="1333.3333" height="1333.3333" xmlns="http://www.w3.org/2000/svg" xmlns:undefined="http://sodipodi.sourceforge.net/DTD/sodipodi-0.dtd" xml:space="preserve" version="1.1">
 <metadata id="metadata8">image/svg+xml</metadata>
 <defs id="defs6">
  <clipPath id="clipPath38" clipPathUnits="userSpaceOnUse">
   <path id="path36" d="m-88.32353,1308.85141l1000,0l0,-1000l-1000,0l0,1000z"/>
  </clipPath>
  <clipPath id="clipPath90" clipPathUnits="userSpaceOnUse">
   <path id="path88" d="m27.50203,1000l1000,0l0,-1000l-1000,0l0,1000z"/>
  </clipPath>
  <linearGradient id="linearGradient28" spreadMethod="pad" y2="-1.61518" x2="0.58126" y1="6.22699" x1="0.29036">
   <stop stop-color="#f96703" id="stop24" offset="0"/>
   <stop stop-color="#d52417" id="stop26" offset="1"/>
  </linearGradient>
  <linearGradient id="linearGradient80" spreadMethod="pad" y2="0.3928" x2="0.50131" y1="0.9813" x1="0.40732">
   <stop stop-color="#f96703" id="stop76" offset="0"/>
   <stop stop-color="#d52417" id="stop78" offset="1"/>
  </linearGradient>
 </defs>
 <g>
  <title>Layer 1</title>
  <g id="svg_2">
   <g transform="matrix(3.90084, 0, 0, -3.90084, -879.13, 3184.77)" id="g12">
    <g id="g14">
     <g id="g20">
      <g id="g22">
       <path fill="url(#linearGradient28)" id="path30" d="m306.45138,665.04445l10.144,-5.539c2.183,-0.936 23.559,-9.572 34.04,6.064l0,0c0.043,0.064 0.086,0.134 0.129,0.199l0,0c-8.093,-1.526 -16.714,-0.07 -24.183,4.204l0,0l-3.785,2.165l-16.345,-7.093z"/>
      </g>
     </g>
    </g>
   </g>
   <g transform="matrix(3.90084, 0, 0, -3.90084, -879.13, 3184.77)" id="g32">
    <g clip-path="url(#clipPath38)" id="g34">
     <g id="g40">
      <path fill-rule="nonzero" fill="#275372" id="path42" d="m387.43706,569.56636c-2.483,3.266 -4.704,6.277 -6.753,9.058c-17.83,24.184 -21.54,29.216 -76.768,32.8c-23.29,1.511 -49.701,14.663 -65.768,23.982l-4.889,-2.121c-5.648,-2.451 -6.038,-9.875 -0.674,-12.839l179.986,-99.446c4.693,-2.593 10.49,-2.658 15.248,-0.173l11.924,6.23c-23.473,15.71 -43.634,31.11 -52.306,42.509"/>
     </g>
     <g id="g44">
      <path fill-rule="nonzero" fill="#0b92b5" id="path46" d="m322.09237,643.49013c2.422,1.242 4.783,2.543 7.113,3.854c-6.631,0.395 -12.739,2.175 -16.904,4.049l-0.339,0.168l-16.199,8.846l-18.052,-7.834c14.789,-8.356 32.676,-15.082 44.381,-9.083"/>
     </g>
     <g id="g48">
      <path fill-rule="nonzero" fill="#275372" id="path50" d="m351.51037,675.29738c2.402,0.755 4.609,1.87 6.632,3.309c0.961,1.836 1.915,3.689 2.859,5.527c1.012,1.972 2.029,3.949 3.056,5.907l-30.603,-13.279c5.782,-2.733 12.249,-3.29 18.056,-1.464"/>
     </g>
     <g id="g52">
      <path fill-rule="nonzero" fill="#056687" id="path54" d="m407.30239,613.09853c-6.513,9.994 -12.663,19.433 -18.565,26.956c-16.671,21.242 -29.086,14.118 -49.652,2.321c-3.963,-2.273 -8.061,-4.624 -12.397,-6.846c-17.967,-9.205 -42.821,2.247 -59.403,12.52l-18.501,-8.028c15.341,-8.4 37.071,-18.342 55.793,-19.557c57.639,-3.739 64.45,-10.143 84.005,-36.671c2.026,-2.746 4.218,-5.722 6.673,-8.947c8.499,-11.172 29.525,-26.888 53.831,-42.909l17.959,9.383c-26.044,20.09 -44.431,48.279 -59.743,71.778"/>
     </g>
     <g id="g56">
      <path fill-rule="nonzero" fill="#275372" id="path58" d="m492.57577,630.75923c8.688,-16.651 18.526,-31.548 29.892,-41.847c4.407,-3.995 8.928,-7.856 13.502,-11.584l25.811,13.484c2.689,1.405 2.629,5.066 -0.103,6.393l-69.102,33.554z"/>
     </g>
     <g id="g60">
      <path fill-rule="nonzero" fill="#0b92b5" id="path62" d="m434.22805,649.51466c-2.202,4.231 -4.451,8.55 -6.711,12.835c-2.478,4.699 -4.972,9.352 -7.435,13.805c-9.608,17.376 -18.756,31.655 -24.776,33.193c-4.062,1.037 -7.909,-1.364 -11.61,-5.67c-1.77,-2.059 -3.507,-4.555 -5.218,-7.321c-1.536,-2.485 -3.052,-5.184 -4.553,-7.984c-1.434,-2.675 -2.855,-5.439 -4.267,-8.187c-1.254,-2.442 -2.524,-4.913 -3.817,-7.347c-2.082,-3.921 -4.225,-7.727 -6.455,-11.155c11.999,2.782 24.318,0.023 37.083,-16.241c6.151,-7.837 12.405,-17.438 19.03,-27.603c15.499,-23.786 34.263,-52.513 60.679,-71.747l19.23,10.046c-22.38,18.849 -42.936,58.323 -61.18,93.376"/>
     </g>
    </g>
   </g>
   <g transform="matrix(3.90084, 0, 0, -3.90084, -879.13, 3184.77)" id="g64">
    <g id="g66">
     <g id="g72">
      <g id="g74">
       <path fill="url(#linearGradient80)" id="path82" d="m389.88638,718.40945c2.472,0.468 5.105,0.407 7.938,-0.315l0,0c10.785,-2.755 21.255,-19.585 36.885,-49.042l0,0c2.278,-4.294 4.667,-8.856 7.182,-13.682l0,0c0.324,-0.622 0.644,-1.235 0.972,-1.866l0,0c18.612,-35.76 39.69,-76.237 61.532,-92.672l0,0l22.638,11.828c-3.798,3.153 -7.556,6.387 -11.235,9.721l0,0c-14.746,13.364 -26.87,33.471 -37.227,55.178l0,0c-2.059,4.316 -4.049,8.693 -5.976,13.097l0,0c-6.279,14.352 -11.886,28.948 -17.048,42.391l0,0c-11.444,29.808 -24.926,78.95 -34.89,79l0,0c-0.011,0 -0.022,0 -0.033,0l0,0c-12.204,0.002 -22.241,-34.256 -30.738,-53.638"/>
      </g>
     </g>
    </g>
   </g>
  </g>
 </g>
</svg>